<?xml version="1.0" standalone="no"?>
<!DOCTYPE svg PUBLIC "-//W3C//DTD SVG 20010904//EN"
 "http://www.w3.org/TR/2001/REC-SVG-20010904/DTD/svg10.dtd">
<svg version="1.0" xmlns="http://www.w3.org/2000/svg"
 width="585.000000pt" height="119.000000pt" viewBox="0 0 585.000000 119.000000"
 preserveAspectRatio="xMidYMid meet">

<g transform="translate(0.000000,119.000000) scale(0.100000,-0.100000)"
fill="#000000" stroke="none">
<path d="M5008 1001 c-159 -52 -268 -189 -276 -349 -2 -40 -1 -89 3 -110 l8
-37 15 44 c20 60 86 124 155 149 53 20 85 27 262 53 105 15 178 43 210 80 31
38 31 51 0 86 l-24 28 -1 -25 c0 -38 -25 -66 -72 -84 -42 -15 -286 -51 -294
-43 -3 2 31 14 73 26 134 39 143 42 173 68 38 31 40 71 5 103 -35 33 -155 38
-237 11z"/>
<path d="M3123 874 c-61 -22 -126 -84 -153 -146 -33 -77 -25 -177 19 -247 36
-55 103 -103 169 -121 55 -14 144 -4 196 22 l39 20 48 -22 c67 -32 167 -32
234 -2 134 61 196 199 149 334 -22 67 -73 120 -144 152 -53 24 -72 28 -134 24
-45 -2 -86 -11 -112 -24 l-41 -20 -49 23 c-58 27 -155 30 -221 7z m171 -45
c20 -13 36 -28 36 -34 0 -5 -11 -32 -25 -59 -43 -85 -30 -203 32 -284 25 -33
25 -36 8 -48 -108 -79 -270 54 -301 245 -13 82 33 179 96 205 33 13 119 -1
154 -25z m299 16 c82 -34 149 -138 155 -242 6 -86 -4 -128 -39 -168 -58 -66
-146 -71 -214 -12 l-38 33 22 42 c45 89 40 192 -15 273 -18 28 -31 55 -28 61
18 29 102 36 157 13z m-176 -255 c3 -71 2 -74 -12 -45 -21 46 -38 134 -30 163
l8 27 15 -35 c9 -19 17 -69 19 -110z"/>
<path d="M230 876 c0 -2 9 -23 20 -47 17 -38 20 -66 20 -209 0 -146 -2 -170
-20 -205 -11 -22 -20 -43 -20 -47 0 -4 83 -8 185 -8 l185 0 0 50 c0 28 -4 50
-9 50 -5 0 -33 -12 -61 -27 -36 -19 -73 -28 -116 -31 l-64 -4 0 101 0 101 55
0 c42 0 55 3 55 15 0 12 -13 15 -55 15 l-55 0 0 111 0 112 57 -7 c32 -4 82
-18 112 -31 75 -35 81 -33 81 20 l0 45 -185 0 c-102 0 -185 -2 -185 -4z"/>
<path d="M610 868 c0 -6 9 -21 19 -32 17 -18 49 -97 166 -404 l27 -73 41 3 41
3 88 230 c52 136 96 237 108 247 32 26 24 38 -25 38 -49 0 -50 -1 -35 -31 9
-16 -4 -61 -67 -229 -43 -115 -80 -210 -83 -210 -4 0 -41 91 -83 203 -68 176
-77 207 -67 231 5 15 10 29 10 32 0 2 -31 4 -70 4 -47 0 -70 -4 -70 -12z"/>
<path d="M1135 863 c34 -80 37 -101 33 -263 -2 -137 -6 -171 -20 -193 -10 -14
-18 -31 -18 -37 0 -6 64 -10 185 -10 l185 0 0 50 c0 57 -13 63 -58 32 -40 -28
-89 -42 -143 -42 l-49 0 0 100 0 100 55 0 c42 0 55 3 55 15 0 12 -13 15 -55
15 l-55 0 0 111 0 112 57 -7 c32 -4 82 -18 112 -31 75 -35 81 -33 81 20 l0 45
-186 0 c-173 0 -186 -1 -179 -17z"/>
<path d="M1530 870 c0 -7 9 -23 20 -37 18 -24 20 -41 20 -212 0 -166 -2 -189
-19 -218 -23 -37 -19 -43 31 -43 39 0 45 8 28 40 -6 12 -9 98 -8 222 l3 202
149 -232 148 -232 39 0 39 0 0 163 c0 144 2 166 20 195 11 18 20 35 20 37 0 3
-21 5 -46 5 -44 0 -46 -1 -38 -22 9 -26 18 -325 10 -317 -4 3 -70 107 -149
230 l-144 224 -61 3 c-42 2 -62 -1 -62 -8z"/>
<path d="M1930 845 c0 -42 16 -45 75 -15 22 11 59 20 82 20 l43 0 0 -207 c0
-189 -2 -211 -19 -237 -11 -17 -18 -33 -15 -38 7 -11 154 -10 154 0 0 5 -8 24
-17 43 -15 29 -18 63 -18 234 l0 200 43 3 c29 2 58 -4 86 -17 62 -31 76 -28
76 14 l0 35 -245 0 -245 0 0 -35z"/>
<path d="M2480 877 c0 -1 9 -20 20 -42 18 -35 20 -59 20 -210 0 -151 -2 -175
-20 -210 -11 -22 -20 -43 -20 -47 0 -4 73 -8 163 -8 134 0 168 3 196 18 103
52 106 191 5 249 -21 13 -34 23 -27 23 19 0 53 65 53 101 0 19 -9 48 -20 66
-33 55 -62 63 -225 63 -80 0 -145 -1 -145 -3z m306 -51 c38 -38 44 -77 19
-126 -21 -42 -43 -50 -129 -50 l-76 0 0 105 0 105 76 0 c73 0 77 -1 110 -34z
m23 -240 c54 -51 50 -131 -7 -176 -20 -17 -40 -20 -113 -20 l-89 0 0 116 0
116 89 -4 c83 -3 92 -5 120 -32z"/>
<path d="M3870 874 c0 -3 9 -17 20 -31 18 -24 20 -41 20 -223 0 -184 -1 -198
-20 -215 -39 -35 -26 -45 60 -45 86 0 99 10 60 45 -17 16 -20 31 -20 111 0 92
0 93 30 114 l31 22 22 -28 c12 -16 52 -67 89 -114 68 -85 77 -103 58 -115 -5
-3 -10 -13 -10 -21 0 -11 17 -14 80 -14 44 0 80 4 80 9 0 5 -13 20 -29 33 -16
13 -71 75 -121 138 -75 93 -98 116 -123 120 -30 5 -30 6 68 84 54 44 118 90
142 103 23 14 43 27 43 29 0 2 -25 4 -55 4 -47 0 -55 -3 -55 -19 0 -12 -43
-53 -120 -115 -66 -53 -122 -96 -125 -96 -3 0 -5 38 -5 84 0 68 4 88 20 109
11 14 20 28 20 31 0 3 -36 6 -80 6 -44 0 -80 -3 -80 -6z"/>
<path d="M5421 788 c-59 -68 -130 -96 -315 -123 -133 -20 -202 -45 -249 -90
-59 -57 -63 -153 -10 -228 38 -55 58 -60 37 -11 -20 49 -14 112 16 153 32 45
88 70 219 97 64 13 132 28 151 34 101 30 10 -27 -114 -72 -103 -37 -142 -61
-173 -107 -40 -59 -24 -160 31 -196 21 -14 44 -17 124 -13 83 3 107 8 157 33
80 38 149 110 188 193 29 62 32 75 32 167 -1 83 -5 109 -24 153 -13 28 -26 52
-30 51 -3 0 -21 -19 -40 -41z"/>
<path d="M2427 404 c-15 -15 -7 -45 11 -42 9 2 17 12 17 22 0 20 -16 31 -28
20z"/>
</g>
</svg>
